<svg id="Layer_1" data-name="Layer 1" xmlns="http://www.w3.org/2000/svg" viewBox="0 0 214.05 238.12"><defs><style>.cls-1{fill:#e2ac88;stroke:#000;stroke-miterlimit:10;stroke-width:0.12px;}.cls-2{fill:#fff;}</style></defs><title>theSinatra</title><g id="Layer_2" data-name="Layer 2"><g id="The_Sinatra" data-name="The Sinatra"><path class="cls-1" d="M209.61,169.38c-1-14.19,2.48-28.8,0-44.19-4-24.6-15.34-52.92-19.37-75.47C186.73,30,209.73,23.29,192.73,12c-7.45-4.93-23-9.59-34.76-9.93-18.39-.56-32.82-2-47.17-2C76.6.06,28.42,3.45,5.57,25.36-9.65,40,11.3,53.8,15,77a26.17,26.17,0,0,1,.09,6.8A3.18,3.18,0,0,1,16.19,87c-.93,4.26-.34,8.24-2.34,12.29a3.07,3.07,0,0,1-.68.93c-.34,1.42-.77,2.81-1.24,4.19-.39,4.38-1.24,8.68-1.79,13a3.41,3.41,0,0,1-.73,1.73c.12,1.81.28,3.61.29,5.38a42.4,42.4,0,0,1-1.35,11.1,3,3,0,0,1-2.13,2.23c.61,19.23,2.9,40.07,11.27,56.76,6.43,12.84-11.24,14.78-.49,22.84,5.92,4.46,12.84,10,23.29,15.39,17.43,8.95,51.56,3.48,72.5,3.48,29.08,0,64.45,7,85.89-9.44C217.69,212.43,211.33,193,209.61,169.38Z" transform="translate(-0.03 0)"/><path class="cls-2" d="M94,198a2.31,2.31,0,0,0-1.2-1,8.08,8.08,0,0,1-.6.57,23.79,23.79,0,0,1-5.45,3.53A24.37,24.37,0,0,1,84,202.22,22.06,22.06,0,0,1,74,206c-.87.11-1.79.2-2.73.25a31.12,31.12,0,0,1-5.87.08,5.89,5.89,0,0,1-.94-.12H64a13,13,0,0,1-3.55-.65,9.34,9.34,0,0,1-2.3-1.15c-2.67-1.14-5.38-2.19-7.59-3.09-.92.05-1.4-.07-1.56.11A23.08,23.08,0,0,0,46.53,204c.22.21,1.37,1.13,1.33,1.14,1,.7,2.11,1.27,3.19,1.89l.33.2.35.12c.67.24,1.34.48,2,.7,1.41.44,2.84.81,4.29,1.13.81.18,1.63.33,2.46.48l.63.11.64,0,4.23.48,2.77.15h.48a19.25,19.25,0,0,1,3.13-.14c.66,0,1.32-.08,2-.14a47.46,47.46,0,0,0,15.65-7,19.94,19.94,0,0,0,3.34-2.95A2.65,2.65,0,0,0,94,198Z" transform="translate(-0.03 0)"/><path class="cls-2" d="M22.41,192a27,27,0,0,1-4.55-5.45A24.71,24.71,0,0,1,16,183.31a3.87,3.87,0,0,1-.41-.4c-5.69-6.17-6.7-16-7.07-24A52.1,52.1,0,0,1,9,146.56c0-5.36-.09-11,1.38-16.1a10.89,10.89,0,0,1,.12-1.8c.1-1.15.45-2.29.49-3.43A78.18,78.18,0,0,1,16.89,98,64.59,64.59,0,0,0,20,88.1c.59-2.44,1.16-5-.34-7.46a51.09,51.09,0,0,1-4.07-7.53c-3.35-8.44-6.41-17-9.73-25.44A60,60,0,0,0,2,40.2c-.29-.51-1.15-.7-1.75-1a5.38,5.38,0,0,0-.1,2C.81,43.15,1.73,45,2.37,47,5.14,55.58,8,64.25,10.62,73c1.3,4.34,2.16,8.81,3.21,13.23,1.15,4.82-2,8.67-3,13C9.46,105.5,7.53,111.66,6.49,118c-1.58,9.52-2.85,19.12-3.73,28.73a52,52,0,0,0,.52,15C4.65,168.42,7,175,9.21,181.54c.56,1.69,2,3.11,3.13,4.58.59.77,1.49,1.3,2.07,2.08,2.62,3.5,2.21,7.19.8,11.06C14,202.67,13,206.17,12,209.68a3,3,0,0,0,1.75,3.87l.25.08c1.9.57,2.71-.86,3.25-2.29a30.58,30.58,0,0,0,.71-3.12c.73-2.82,1.5-5.62,2.25-8.43l.91.1a26.36,26.36,0,0,0,2.47,2.7,7.17,7.17,0,0,0,2.13.86,7.81,7.81,0,0,0,0-2.46Q24.13,196.49,22.41,192Z" transform="translate(-0.03 0)"/><path class="cls-2" d="M214,196c-.9-7.37-2-14.72-3-22.07-.08-.56-.41-1.09-.52-1.65a12.1,12.1,0,0,1-.62-3.73c1.28-10.49,2.91-20.94,3.93-31.45a99.56,99.56,0,0,0-.11-16.29,67.19,67.19,0,0,0-2-11.7c-1.46-5.74-3.15-11.45-5-17.07-1.45-4.29-3.47-8.38-5-12.63s-2.86-8.43-4.21-12.67c-1.57-4.93-3.22-9.85-4.56-14.86a9.62,9.62,0,0,1-.28-3.25,14.31,14.31,0,0,1-.11-3.27v-.12a38.39,38.39,0,0,1,1-9,25,25,0,0,1,5.2-11c.16-.36.33-.72.5-1.08a7.76,7.76,0,0,1,.83-1.35,4.52,4.52,0,0,0,.14-1.9,2.85,2.85,0,0,0-.13-.48c-.37-.08-.73-.17-1.09-.28l-.35-.13a11.88,11.88,0,0,0-2.19,1.74A42.19,42.19,0,0,0,191,29.4c-.56.91-1.13,1.91-1.73,2.9a5.45,5.45,0,0,1-.36,1.19c-.63,3.77-1.15,7.56-1.45,11.36a42.53,42.53,0,0,0,.19,9.3c.5,3.43,1.59,6.77,2.38,10.16.7,1.86,1.7,3.55,2.4,5.42.82,2.19,1.32,4.33,2.33,6.45l.06.13h0c.18.11.26.41.35.64,1.41,3.4,2.93,6.75,4.18,10.2Q201.83,94,204,101c1.15,3.7,2.52,7.41,3.06,11.22.27,1.91.49,3.83.68,5.75,1.31,4.34,2.48,8.81,2,13.08a70.06,70.06,0,0,1,.07,14.55c-.07.72-.18,1.41-.3,2.09a54.41,54.41,0,0,1-.85,8.15c-1.31,7.55-2.94,15-4.5,22.56a35.81,35.81,0,0,1-1.39,4.41c-1.06,3.08-2.21,6.14-3.21,9.24a3.15,3.15,0,0,0-.06,2.18l.32.11.2.06a4.89,4.89,0,0,0,1.75-1.08,7.58,7.58,0,0,0,.72-1.42,7.06,7.06,0,0,1,.75-1.34,5.29,5.29,0,0,1,.68-1.56,11.28,11.28,0,0,0,.89-2.82,10.74,10.74,0,0,1,1.92-4.34c.72-.84,1.8.1,1.66,1a.83.83,0,0,1-.07.41,1.8,1.8,0,0,1,.08.39c.34,3.94.65,7.9.88,11.85.11,2-.19,4,.1,5.94a2.92,2.92,0,0,0,.93,1.45,3.74,3.74,0,0,0,2.38-.19,5.93,5.93,0,0,0,.81-.53.85.85,0,0,0,.11-.26A18,18,0,0,0,214,196Z" transform="translate(-0.03 0)"/><path class="cls-2" d="M121.16,105.78c-.06-6.19-2.06-11.83-3.49-17.66-.45-1.85-1.68-3-3.59-2.59-2.16.5-2,2.27-1.57,4,1.68,6.68,3.57,13.32,5,20.06,2.71,13.09,2.49,26.28.5,39.44-1,6.52-2.23,13-3.59,19.46-1.13,5.4-2.63,10.72-3.88,16.09a7.82,7.82,0,0,0,.21,2.46c.92-.32,2.33-.38,2.66-1a29.29,29.29,0,0,0,3-7.25c1.18-5.23,1.71-10.61,2.9-15.84,3.15-13.78,3.53-27.83,4.44-42.53a16.81,16.81,0,0,0-.25-2C122.69,114.19,121.21,110,121.16,105.78Z" transform="translate(-0.03 0)"/><path class="cls-2" d="M177,194.51c-4.44,3.58-9.26,7.21-14.7,8.76-4.11,1.16-8.25.83-12.4.23a19.65,19.65,0,0,1-10.84-4.64c-1.36-.3-2.77-.46-4.13-.74-.69-.14-1.54.47-2.31.73.38.84.53,2.07,1.18,2.46,4.1,2.48,8.25,4.87,12.4,7.24l1.31.32a37,37,0,0,0,7.54,1.1l1.83.05,1.82-.29c8.38-1.19,13.87-6.79,19.31-12.49.17-.17.39-.42.38-.62,0-.51-.07-1-.11-1.51A10,10,0,0,1,177,194.51Z" transform="translate(-0.03 0)"/><path d="M214,196c-.9-7.37-2-14.72-3-22.07-.08-.56-.41-1.09-.52-1.65a12.1,12.1,0,0,1-.62-3.73c1.28-10.49,2.91-20.94,3.93-31.45a99.56,99.56,0,0,0-.11-16.29,67.19,67.19,0,0,0-2-11.7c-1.46-5.74-3.15-11.45-5-17.07-1.45-4.29-3.47-8.38-5-12.63s-2.86-8.43-4.21-12.67c-1.57-4.93-3.22-9.85-4.56-14.86a9.62,9.62,0,0,1-.28-3.25,14.31,14.31,0,0,1-.11-3.27v-.12a38.39,38.39,0,0,1,1-9,25,25,0,0,1,5.2-11c.16-.36.33-.72.5-1.08a7.76,7.76,0,0,1,.83-1.35,4.52,4.52,0,0,0,.14-1.9,2.85,2.85,0,0,0-.13-.48c-.37-.08-.73-.17-1.09-.28l-.35-.13a11.88,11.88,0,0,0-2.19,1.74A42.19,42.19,0,0,0,191,29.4c-.56.91-1.13,1.91-1.73,2.9a5.45,5.45,0,0,1-.36,1.19c-.63,3.77-1.15,7.56-1.45,11.36a42.53,42.53,0,0,0,.19,9.3c.5,3.43,1.59,6.77,2.38,10.16.7,1.86,1.7,3.55,2.4,5.42.82,2.19,1.32,4.33,2.33,6.45l.06.13h0c.18.11.26.41.35.64,1.41,3.4,2.93,6.75,4.18,10.2Q201.83,94,204,101c1.15,3.7,2.52,7.41,3.06,11.22.27,1.91.49,3.83.68,5.75,1.31,4.34,2.48,8.81,2,13.08a70.06,70.06,0,0,1,.07,14.55c-.07.72-.18,1.41-.3,2.09a54.41,54.41,0,0,1-.85,8.15c-1.31,7.55-2.94,15-4.5,22.56a35.81,35.81,0,0,1-1.39,4.41c-1.06,3.08-2.21,6.14-3.21,9.24a3.15,3.15,0,0,0-.06,2.18l.32.11.2.06a4.89,4.89,0,0,0,1.75-1.08,7.58,7.58,0,0,0,.72-1.42,7.06,7.06,0,0,1,.75-1.34,5.29,5.29,0,0,1,.68-1.56,11.28,11.28,0,0,0,.89-2.82,10.74,10.74,0,0,1,1.92-4.34c.72-.84,1.8.1,1.66,1a.83.83,0,0,1-.07.41,1.8,1.8,0,0,1,.08.39c.34,3.94.65,7.9.88,11.85.11,2-.19,4,.1,5.94a2.92,2.92,0,0,0,.93,1.45,3.74,3.74,0,0,0,2.38-.19,5.93,5.93,0,0,0,.81-.53.85.85,0,0,0,.11-.26A18,18,0,0,0,214,196Z" transform="translate(-0.03 0)"/><path d="M22.41,192a27,27,0,0,1-4.55-5.45A24.71,24.71,0,0,1,16,183.31a3.87,3.87,0,0,1-.41-.4c-5.69-6.17-6.7-16-7.07-24A52.1,52.1,0,0,1,9,146.56c0-5.36-.09-11,1.38-16.1a10.89,10.89,0,0,1,.12-1.8c.1-1.15.45-2.29.49-3.43A78.18,78.18,0,0,1,16.89,98,64.59,64.59,0,0,0,20,88.1c.59-2.44,1.16-5-.34-7.46a51.09,51.09,0,0,1-4.07-7.53c-3.35-8.44-6.41-17-9.73-25.44A60,60,0,0,0,2,40.2c-.29-.51-1.15-.7-1.75-1a5.38,5.38,0,0,0-.1,2C.81,43.15,1.73,45,2.37,47,5.14,55.58,8,64.25,10.62,73c1.3,4.34,2.16,8.81,3.21,13.23,1.15,4.82-2,8.67-3,13C9.46,105.5,7.53,111.66,6.49,118c-1.58,9.52-2.85,19.12-3.73,28.73a52,52,0,0,0,.52,15C4.65,168.42,7,175,9.21,181.54c.56,1.69,2,3.11,3.13,4.58.59.77,1.49,1.3,2.07,2.08,2.62,3.5,2.21,7.19.8,11.06C14,202.67,13,206.17,12,209.68a3,3,0,0,0,1.75,3.87l.25.08c1.9.57,2.71-.86,3.25-2.29a30.58,30.58,0,0,0,.71-3.12c.73-2.82,1.5-5.62,2.25-8.43l.91.1a26.36,26.36,0,0,0,2.47,2.7,7.17,7.17,0,0,0,2.13.86,7.81,7.81,0,0,0,0-2.46Q24.13,196.49,22.41,192Z" transform="translate(-0.03 0)"/><path d="M123.75,120.42c-.91,14.7-1.29,28.75-4.44,42.53-1.19,5.23-1.72,10.61-2.9,15.84a29.29,29.29,0,0,1-3,7.25c-.33.63-1.74.69-2.66,1a7.82,7.82,0,0,1-.21-2.46c1.25-5.37,2.75-10.69,3.88-16.09C115.78,162,117,155.55,118,149c2-13.16,2.21-26.35-.5-39.44-1.39-6.74-3.28-13.38-5-20.06-.44-1.74-.59-3.51,1.57-4,1.91-.44,3.14.74,3.59,2.59,1.43,5.83,3.43,11.47,3.49,17.66,0,4.22,1.53,8.41,2.34,12.63A17,17,0,0,1,123.75,120.42Z" transform="translate(-0.03 0)"/><path d="M177,194.51c-4.44,3.58-9.26,7.21-14.7,8.76-4.11,1.16-8.25.83-12.4.23a19.65,19.65,0,0,1-10.84-4.64c-1.36-.3-2.77-.46-4.13-.74-.69-.14-1.54.47-2.31.73.38.84.53,2.07,1.18,2.46,4.1,2.48,8.25,4.87,12.4,7.24l1.31.32a37,37,0,0,0,7.54,1.1l1.83.05,1.82-.29c8.38-1.19,13.87-6.79,19.31-12.49.17-.17.39-.42.38-.62,0-.51-.07-1-.11-1.51A10,10,0,0,1,177,194.51Z" transform="translate(-0.03 0)"/><path d="M94,198a2.31,2.31,0,0,0-1.2-1,8.08,8.08,0,0,1-.6.57,23.79,23.79,0,0,1-5.45,3.53A24.37,24.37,0,0,1,84,202.22,22.06,22.06,0,0,1,74,206c-.87.11-1.79.2-2.73.25a31.12,31.12,0,0,1-5.87.08,5.89,5.89,0,0,1-.94-.12H64a13,13,0,0,1-3.55-.65,9.34,9.34,0,0,1-2.3-1.15c-2.67-1.14-5.38-2.19-7.59-3.09-.92.05-1.4-.07-1.56.11A23.08,23.08,0,0,0,46.53,204c.22.21,1.37,1.13,1.33,1.14,1,.7,2.11,1.27,3.19,1.89l.33.2.35.12c.67.24,1.34.48,2,.7,1.41.44,2.84.81,4.29,1.13.81.18,1.63.33,2.46.48l.63.11.64,0,4.23.48,2.77.15h.48a19.25,19.25,0,0,1,3.13-.14c.66,0,1.32-.08,2-.14a47.46,47.46,0,0,0,15.65-7,19.94,19.94,0,0,0,3.34-2.95A2.65,2.65,0,0,0,94,198Z" transform="translate(-0.03 0)"/><path d="M109.6,215.93c.35-3.56.45-6.88,1.09-10.1.25-1.28,1.67-2.34,2.55-3.49.7,1.23,2,2.45,2,3.69.1,4.2-.27,8.41-.38,12.62-.06,2.64.18,5.3,0,7.92-.07,1-1,1.83-1.53,2.74-.82-.76-2.2-1.43-2.36-2.31C110.3,223.28,110,219.49,109.6,215.93Z" transform="translate(-0.03 0)"/></g></g></svg>