<svg xmlns="http://www.w3.org/2000/svg" viewBox="0 0 243.39 199.85"><defs><style>.cls-1,.cls-2{fill:#86645a;}.cls-1{stroke:#000;stroke-miterlimit:10;stroke-width:0.13px;}</style></defs><title>theStandard</title><g id="Layer_2" data-name="Layer 2"><g id="The_Standard" data-name="The Standard"><path class="cls-1" d="M107.38,190.42h0a4.36,4.36,0,0,0,1.4-3c0-6.54-9.44-11.85-33.49-11.85s-53.58,5.31-53.58,11.85,19.49,11.85,43.54,11.85c19.36,0,35.76-3.44,41.41-8.19A1,1,0,0,1,107.38,190.42Z"/><ellipse class="cls-1" cx="172.7" cy="188.71" rx="49.46" ry="11.08"/><path class="cls-2" d="M230.91,36c-1.54-11.34-6.79-22.61-15.45-27.31C189.28-5.56,160.91,3.5,121.69,3.5,81.09,3.5,27.59-11,17.62,19c-2.34,7-5.53,24.68-8.24,30.4-7.65,16.17-6.7,23.09-6.7,50,0,28.52.9,50.17,10.3,70.07,2.85,6,4.36,11.33,6.76,19.21a63.58,63.58,0,0,0,9.93,2.67c10.9.95,21.82-.34,32.69-1.35s21.82-1.27,32.62.36a96.15,96.15,0,0,1,10.72-.83,1,1,0,0,1,.65-.57c2-.54,4.26-1,5.78-2.6,1.35-1.41,2.12-3.35,3.26-4.91a1.21,1.21,0,0,1,.55-.43,1,1,0,0,1,1.62.17c1.27,1.66,2.6,3.3,3.87,5,.48.48,1,.95,1.5,1.38,1.19,1,3.22,1.22,4.39,2.28,13.15.18,26.3.15,39.44.22,8.46,0,17-.37,25.42.61l4.6-.27c5.5-.36,11-1.16,16.56-1.25,1.83,0,3.7,0,5.58.14,6.7-5.23,6.85-12.86,9.93-18.78,10.09-19.38,12.37-41.75,12.37-70.06C241.22,73.62,233.38,54.07,230.91,36Z"/><path d="M133.77,70.07a51,51,0,0,1-.74-5.52c0-.12,0-.24,0-.36-.06-.38-.12-.77-.17-1.16a11.58,11.58,0,0,1-1.08-3c-.07-.33-.52-2.9-.44-2.71-.18-.71-.38-1.41-.63-2.1-.43-1.23-1.27-3-1.95-4.66-.37-.91-.69-1.82-1-2.74.56,7.46,1.41,4,1.74,12.47.07,1.77.17,3.55.25,5.32.5,2.41.62,4.89.89,7.33a4.51,4.51,0,0,1,0,.73s0,1.22-.09,2.85a22.21,22.21,0,0,1,.31,4c0,.53,0,1.06,0,1.58A25.43,25.43,0,0,1,131.1,87a42.37,42.37,0,0,1,.27,4.28c.11,5.43-.4,9.55-.18,14.73a21,21,0,0,1-.09,3.62c-.33,3-.75,6.13-1.32,9.18-1.11,6-2.69,11.93-4.06,17.87a118.77,118.77,0,0,1-3.26,12.63c-.21.59-.44,1.22-.68,1.87-.23,4.71-2.58,8.94-4.06,13.33-1,3-1.53,6.63-3.62,9a11.65,11.65,0,0,1-3.28,4c-1.3,2.72-2.79,5.36-4,8.12-.38.85.17,2.1.29,3.16.94-.52,2.19-.83,2.75-1.62,1.19-1.66,2-3.61,3-5.39s2-3.25,3.22-5.12c.53.74.77,1.08,1,1.42,1.6,2.31,6.21,7.27,8,9.48.42.53,1.59.48,2.41.7a11.94,11.94,0,0,0,.46-2.53c0-.54-3.54-3.67-3.87-4.17-1.59-2.44-3.38-4.77-4.74-7.32-.75-1.4,1.11-3.87,1.5-5.26,2.79-10.13,5.57-18.58,8.26-28.73,2.36-8.93,2.47-13,4.49-22,.71-3.18.77-12.39,1-15.61.65-7.49.21-16.46-.35-24.07C134,75.83,133.88,73,133.77,70.07Z"/><path d="M243.38,111.34c-.18-10.88-.3-23.8-1.31-34.62C241,65,236.79,53.29,233.84,41.84c-1.74-6.72-4.63-13.18-6.65-19.79-.28-.92-.57-1.83-.86-2.73a1.62,1.62,0,0,0-.19.18c-.36.36-.67.77-1,1.12l-.07.08-.05.07c-.23.33-.45.67-.68,1a98.89,98.89,0,0,1,2.46,10.57c1.26,7.22,4.68,13.93,6.42,21,.4,1.25.73,2.51,1,3.79a5.7,5.7,0,0,1,.58,1.59,115.19,115.19,0,0,1,1.75,14.75c.1.33.2.65.27,1,1.3,5.22,1.22,10.62,1.88,15.92.58,4.7.84,9.31,1,14a38.39,38.39,0,0,1-.25,7.41l-2.87,32.63a7.62,7.62,0,0,1-.3,1.11,11.32,11.32,0,0,1-.66,2.62,26.15,26.15,0,0,0-1.2,5.34c-.59,4.2-2.2,7.4-4,11.22-1.48,3.06-2.47,7.08-4.23,10a7.44,7.44,0,0,1-.53.77c-.34.61-.69,1.22-1.06,1.83a57,57,0,0,0-4.39,8.29v0a2,2,0,0,0,2.23,2.83l.27-.07a4.11,4.11,0,0,0,2-2.15c2.47-5.45,2.26-5.28,4.64-10.77,4.68-10.8,10-21.77,10.91-33.41C241,131.5,243.56,122,243.38,111.34Z"/><path d="M14.11,178.07c2.37,5.5,2.17,5.33,4.63,10.78a6.08,6.08,0,0,0,.76,1.21c.88.32,1.77.62,2.66.9a2.06,2.06,0,0,0,1.05-2.72l0,0a55.91,55.91,0,0,0-4.38-8.28c-.37-.61-.72-1.22-1.06-1.84a6.86,6.86,0,0,1-.53-.76c-1.76-2.92-2.75-6.93-4.23-10-1.84-3.81-3.45-7-4-11.21a26.17,26.17,0,0,0-1.21-5.34,12.67,12.67,0,0,1-.66-2.63,8.25,8.25,0,0,1-.3-1.11L3.92,114.41a38.32,38.32,0,0,1-.25-7.4c.19-4.72.46-9.34,1-14,.66-5.31.58-10.7,1.87-15.92.08-.31.17-.64.27-1A113.61,113.61,0,0,1,8.61,61.34a5.62,5.62,0,0,1,.58-1.59c.28-1.27.62-2.54,1-3.79,1.74-7.11,5.16-13.82,6.41-21a101.22,101.22,0,0,1,2.47-10.56c-.23-.34-.46-.68-.68-1l-.05-.07-.08-.07c-.36-.35-.67-.77-1-1.13l-.19-.18c-.29.91-.58,1.82-.86,2.73-2,6.62-4.92,13.08-6.65,19.79-3,11.46-7.14,23.21-8.23,34.88C.31,90.12.19,103,0,113.91c-.18,10.63,2.39,20.16,3.19,30.75C4.08,156.3,9.43,167.27,14.11,178.07Z"/></g></g></svg>